<?xml version="1.0" encoding="iso-8859-1"?>
<!-- Generator: Adobe Illustrator 19.0.0, SVG Export Plug-In . SVG Version: 6.00 Build 0)  -->
<svg xmlns="http://www.w3.org/2000/svg" xmlns:xlink="http://www.w3.org/1999/xlink" version="1.1" id="Capa_1" x="0px" y="0px" viewBox="0 0 469.333 469.333" style="enable-background:new 0 0 469.333 469.333;" xml:space="preserve">
<path style="fill:#303C42;" d="M455.414,248.638c-25.765-29.045-109.655-109.98-109.655-109.98L466.208,18.208  c3.042-3.052,3.958-7.635,2.313-11.625S462.979,0,458.667,0H288c-14.915,0-28.475,5.339-39.368,13.923L138.658,123.574L18.208,3.125  c-3.042-3.042-7.667-3.958-11.625-2.313C2.604,2.458,0,6.354,0,10.667v170.667c0,14.911,5.337,28.47,13.919,39.362l109.655,109.98  L3.125,451.125c-3.042,3.052-3.958,7.635-2.313,11.625c1.646,3.99,5.542,6.583,9.854,6.583h170.667  c14.915,0,28.475-5.339,39.368-13.923l109.974-109.651l120.449,120.449c2.042,2.042,4.771,3.125,7.542,3.125  c1.375,0,2.771-0.26,4.083-0.813c3.979-1.646,6.583-5.542,6.583-9.854V288C469.333,273.089,464.616,259.011,455.414,248.638z"/>
<path style="fill:#FFCA28;" d="M400.917,224H264.702c-0.371-1.042-0.77-2.055-1.242-3.043l67.216-67.216L400.917,224z"/>
<path style="fill:#F2F2F2;" d="M432.917,21.333l-184.54,184.54c-0.988-0.473-2.001-0.871-3.043-1.242V64  c0-9.827,3.474-18.773,9.076-25.993l7.6-7.599c7.221-5.602,16.168-9.074,25.991-9.074H432.917z"/>
<path style="opacity:0.1;enable-background:new    ;" d="M266.667,64c0-9.827,3.474-18.773,9.076-25.993l7.6-7.599  c7.221-5.602,16.168-9.074,25.991-9.074H288c-9.823,0-18.77,3.473-25.991,9.074l-7.6,7.599c-5.602,7.22-9.076,16.167-9.076,25.993  v140.632c1.042,0.371,2.055,0.77,3.043,1.242l18.29-18.29V64z"/>
<path style="fill:#D32F2F;" d="M224,68.41v136.221c-1.042,0.371-2.055,0.77-3.043,1.242l-67.216-67.216L224,68.41z"/>
<path style="fill:#F2F2F2;" d="M21.333,36.417l184.54,184.54c-0.473,0.988-0.871,2.001-1.242,3.043H64  c-9.801,0-18.73-3.457-25.944-9.035l-7.703-7.704c-5.57-7.208-9.02-16.132-9.02-25.927V36.417z"/>
<path style="opacity:0.1;enable-background:new    ;" d="M64,208.917c-9.801,0-18.73-3.457-25.944-9.035l-7.703-7.704  c-5.57-7.208-9.02-16.132-9.02-25.927v15.083c0,9.796,3.449,18.719,9.02,25.927l7.703,7.704C45.27,220.543,54.199,224,64,224  h140.632c0.371-1.042,0.77-2.055,1.242-3.043l-12.04-12.04H64z"/>
<path style="fill:#0288D1;" d="M68.417,245.333h136.215c0.371,1.042,0.77,2.055,1.242,3.043l-67.216,67.216L68.417,245.333z"/>
<path style="fill:#F2F2F2;" d="M36.417,448l184.54-184.54c0.988,0.473,2.001,0.871,3.043,1.242v140.632  c0,9.827-3.474,18.773-9.076,25.993l-7.6,7.599c-7.221,5.602-16.168,9.074-25.991,9.074H36.417z"/>
<path style="opacity:0.1;enable-background:new    ;" d="M220.957,263.46L36.417,448H56.54l149.333-149.333  c0.988,0.473,2.001,0.871,3.043,1.242v137.424l6.008-6.007c5.602-7.22,9.076-16.167,9.076-25.993V264.702  C222.958,264.331,221.945,263.932,220.957,263.46z"/>
<path style="fill:#7CB342;" d="M245.333,400.923V264.702c1.042-0.371,2.055-0.77,3.043-1.242l67.216,67.216L245.333,400.923z"/>
<path style="fill:#F2F2F2;" d="M448,432.917l-184.54-184.54c0.473-0.988,0.871-2.001,1.242-3.043h140.632  c9.801,0,19.1,3.01,25.944,9.035c2.044,1.8,5.926,5.641,7.703,7.704c5.945,6.902,9.02,16.132,9.02,25.927V432.917z"/>
<path style="opacity:0.1;enable-background:new    ;" d="M438.98,262.073c-1.777-2.064-5.659-5.905-7.703-7.704  c-6.844-6.026-16.143-9.035-25.944-9.035H264.702c-0.371,1.042-0.77,2.055-1.242,3.043l18.29,18.29h123.583  c9.801,0,19.1,3.009,25.944,9.035c2.044,1.799,5.926,5.641,7.703,7.704c5.945,6.902,9.02,16.132,9.02,25.927V288  C448,278.204,444.926,268.975,438.98,262.073z"/>
<linearGradient id="SVGID_1_" gradientUnits="userSpaceOnUse" x1="-69.1359" y1="619.26" x2="-42.937" y2="607.0421" gradientTransform="matrix(21.3333 0 0 -21.3333 1430.1112 13315.2227)">
	<stop offset="0" style="stop-color:#FFFFFF;stop-opacity:0.2"/>
	<stop offset="1" style="stop-color:#FFFFFF;stop-opacity:0"/>
</linearGradient>
<path style="fill:url(#SVGID_1_);" d="M455.414,248.638c-25.765-29.045-109.655-109.98-109.655-109.98L466.208,18.208  c3.042-3.052,3.958-7.635,2.313-11.625S462.979,0,458.667,0H288c-14.915,0-28.475,5.339-39.368,13.923L138.658,123.574L18.208,3.125  c-3.042-3.042-7.667-3.958-11.625-2.313C2.604,2.458,0,6.354,0,10.667v170.667c0,14.911,5.337,28.47,13.919,39.362l109.655,109.98  L3.125,451.125c-3.042,3.052-3.958,7.635-2.313,11.625c1.646,3.99,5.542,6.583,9.854,6.583h170.667  c14.915,0,28.475-5.339,39.368-13.923l109.974-109.651l120.449,120.449c2.042,2.042,4.771,3.125,7.542,3.125  c1.375,0,2.771-0.26,4.083-0.813c3.979-1.646,6.583-5.542,6.583-9.854V288C469.333,273.089,464.616,259.011,455.414,248.638z"/>
<g>
</g>
<g>
</g>
<g>
</g>
<g>
</g>
<g>
</g>
<g>
</g>
<g>
</g>
<g>
</g>
<g>
</g>
<g>
</g>
<g>
</g>
<g>
</g>
<g>
</g>
<g>
</g>
<g>
</g>
</svg>
