<?xml version="1.0" encoding="iso-8859-1"?>
<!-- Generator: Adobe Illustrator 19.0.0, SVG Export Plug-In . SVG Version: 6.00 Build 0)  -->
<svg xmlns="http://www.w3.org/2000/svg" xmlns:xlink="http://www.w3.org/1999/xlink" version="1.1" id="Capa_1" x="0px" y="0px" viewBox="0 0 512.005 512.005" style="enable-background:new 0 0 512.005 512.005;" xml:space="preserve">
<path style="fill:#303C42;" d="M440.888,64.609l-181.333-64c-2.292-0.812-4.813-0.812-7.104,0l-181.333,64  c-4.26,1.51-7.115,5.542-7.115,10.063v128c0,165.646,24.563,226.188,187.198,308.188c1.51,0.76,3.156,1.146,4.802,1.146  c1.646,0,3.292-0.385,4.802-1.146c162.635-82,187.198-142.542,187.198-308.188v-128C448.003,70.151,445.148,66.12,440.888,64.609z"/>
<path style="fill:#7CB342;" d="M256.003,21.984L85.336,82.224v120.448c0,19.303,0.318,36.962,1.115,53.328h169.552V21.984z"/>
<path style="fill:#546E7A;" d="M425.555,256c0.797-16.366,1.115-34.025,1.115-53.328V82.224l-170.667-60.24V256H425.555z"/>
<path style="fill:#7CB342;" d="M256.003,256v233.38C388.137,422.014,419.801,374.145,425.555,256H256.003z"/>
<path style="fill:#546E7A;" d="M86.451,256c5.754,118.145,37.418,166.014,169.552,233.38V256H86.451z"/>
<path style="opacity:0.1;enable-background:new    ;" d="M256.003,448C105.565,371.302,85.336,341.286,85.336,182.63v20.042  c0,158.656,20.229,210.01,170.667,286.708c150.438-76.698,170.667-128.052,170.667-286.708V182.63  C426.669,341.286,406.44,371.302,256.003,448z"/>
<path style="fill:#303C42;" d="M138.669,257.708c0,17.526,5.947,33.612,17.145,48.146c-6.184,13.422-11.872,27.483-16.665,43  c-1.75,5.625,1.417,11.594,7.042,13.333c1.042,0.323,2.104,0.479,3.146,0.479c4.563,0,8.771-2.938,10.188-7.521  c3.641-11.78,7.772-22.62,12.186-33.018c15.155,12.495,32.052,19.206,50.585,19.206c83.667,0,151.042-113.323,151.042-207.156  c0-15.167-12.354-27.51-27.521-27.51C251.982,106.667,138.669,174.042,138.669,257.708z"/>
<linearGradient id="SVGID_1_" gradientUnits="userSpaceOnUse" x1="-34.8467" y1="635.4673" x2="-27.9285" y2="628.5491" gradientTransform="matrix(21.3333 0 0 -21.3333 996.2804 13791.7256)">
	<stop offset="0" style="stop-color:#000000;stop-opacity:0.1"/>
	<stop offset="1" style="stop-color:#000000;stop-opacity:0"/>
</linearGradient>
<path style="fill:url(#SVGID_1_);" d="M368.822,119.151l-0.337,0.353c2.809,4.311,4.852,9.158,4.852,14.673  c0,93.833-67.375,207.156-151.042,207.156c-18.533,0-35.43-6.711-50.585-19.206c-4.414,10.398-8.546,21.238-12.186,33.018  c-1.417,4.583-5.625,7.521-10.188,7.521c-0.233,0-0.47-0.091-0.704-0.107l-0.048,0.107l120.523,119.819  C390.017,418.656,420,370.047,425.555,256c0.797-16.366,1.115-34.025,1.115-53.328v-25.674L368.822,119.151z"/>
<path style="fill:#7CB342;" d="M160.003,257.708C160.003,187.854,262.169,128,345.815,128c3.417,0,6.188,2.771,6.188,6.177  c0,83.646-59.854,185.823-129.708,185.823c-15.074,0-28.939-6.125-41.349-17.889c25.388-48.531,62.932-81.909,122.432-111.204  c5.292-2.604,7.458-9,4.854-14.281c-2.604-5.292-8.979-7.438-14.271-4.865c-59.788,29.44-99.505,64.225-126.98,112.249  C162.525,275.712,160.003,266.961,160.003,257.708z"/>
<path style="opacity:0.1;enable-background:new    ;" d="M345.815,128c-2.049,0-47.146,160-137.078,177.945  c-7.787,1.554-17.958-1.049-27.552-3.641C193.535,313.926,207.314,320,222.294,320c69.854,0,129.708-102.177,129.708-185.823  C352.003,130.771,349.232,128,345.815,128z"/>
<linearGradient id="SVGID_2_" gradientUnits="userSpaceOnUse" x1="-45.2066" y1="639.8678" x2="-25.9781" y2="630.9016" gradientTransform="matrix(21.3333 0 0 -21.3333 996.2804 13791.7256)">
	<stop offset="0" style="stop-color:#FFFFFF;stop-opacity:0.2"/>
	<stop offset="1" style="stop-color:#FFFFFF;stop-opacity:0"/>
</linearGradient>
<path style="fill:url(#SVGID_2_);" d="M440.888,64.609l-181.333-64c-2.292-0.812-4.813-0.812-7.104,0l-181.333,64  c-4.26,1.51-7.115,5.542-7.115,10.063v128c0,165.646,24.563,226.188,187.198,308.188c1.51,0.76,3.156,1.146,4.802,1.146  c1.646,0,3.292-0.385,4.802-1.146c162.635-82,187.198-142.542,187.198-308.188v-128C448.003,70.151,445.148,66.12,440.888,64.609z"/>
<g>
</g>
<g>
</g>
<g>
</g>
<g>
</g>
<g>
</g>
<g>
</g>
<g>
</g>
<g>
</g>
<g>
</g>
<g>
</g>
<g>
</g>
<g>
</g>
<g>
</g>
<g>
</g>
<g>
</g>
</svg>
