<?xml version="1.0" encoding="iso-8859-1"?>
<!-- Generator: Adobe Illustrator 19.0.0, SVG Export Plug-In . SVG Version: 6.00 Build 0)  -->
<svg xmlns="http://www.w3.org/2000/svg" xmlns:xlink="http://www.w3.org/1999/xlink" version="1.1" id="Capa_1" x="0px" y="0px" viewBox="0 0 512 512" style="enable-background:new 0 0 512 512;" xml:space="preserve">
<path style="fill:#303C42;" d="M247.866,214.001c3.424-14.413,7.523-27.482,12.296-39.306C273.107,185.974,287.665,192,303.698,192  c68.115,0,122.969-91.823,122.969-167.854C426.667,10.833,415.833,0,402.521,0C326.49,0,234.667,54.854,234.667,122.969  c0,12.181,3.556,23.492,10.086,33.938c-5.305,11.602-10.009,24.378-14.022,38.462c-3.733-6.056-7.629-11.871-11.688-17.447  c4.566-7.594,7.092-15.793,7.092-24.641c0-49.458-66.031-89.281-120.698-89.281c-11.083,0-20.104,9.021-20.104,20.104  c0,54.667,39.823,120.698,89.281,120.698c10.931,0,20.914-3.703,29.897-10.66c4.467,6.409,8.764,13.109,12.855,20.277  c-74.212,8.612-132.034,71.763-132.034,148.247C85.333,445.01,152.323,512,234.667,512S384,445.01,384,362.667  C384,284.777,324.04,220.714,247.866,214.001z"/>
<g>
	<path style="fill:#7CB342;" d="M350.049,307.617c-5.451,6.208-11.268,11.818-14.862,14.268c-3.323-2.719-8.646-6.458-14.385-8.125   c1.635-2.781,2.906-6.51,2.906-11.385c0-18.271-21.469-28.75-58.896-28.75c-11.156,0-19.427,3.417-26.135,6.573   c1.99-1.625,4.292-3.188,6.844-4.49c6.469-3.281,15.219-8.719,16.427-17.99c0.229-1.802,0.156-3.479-0.135-5.042   c7.289-1.958,18.48-3.706,29.63-4.56C317.016,260.845,337.695,281.831,350.049,307.617z"/>
	<path style="fill:#7CB342;" d="M277.708,383.115c-1.344-3.083-2.229-5.115-2.229-8.385c0-18.781-28.75-22.729-52.875-22.729   c-4.156,0-7.073-1.354-7.417-1.396c0-2-0.177-4.188-0.385-6.5c-0.656-7.51-0.833-11.969,3.292-16.094   c8.063-8.063,22.708-8.938,28.635-8.938c5.438,0,6.917,0.698,9.354,1.844c4.844,2.292,9.76,4.188,20.781,4.188l6.875,0.083   c6.167,0.083,12.188,0.219,17.656-0.49c-0.417,2.99-0.073,6.74,1.604,11.417c4,11.188,12.688,21.198,19.302,27.646   c-6.49,8.313-13.792,19.656-13.542,28.271c-0.448,0.573-1.052,1-1.635,1.51c-3.771,3.271-10.781,9.344-10.781,23.385   c0,3.51-7.542,8.438-15.656,11.646c-2.76-4.073-5.208-8.792-5.208-11.646l0.896-3.01c2.479-3.219,5.135-7.302,5.135-15.073   C281.51,391.833,279.406,387,277.708,383.115z"/>
</g>
<path style="fill:#BBDEFB;" d="M251.323,297.896c4.115-1.719,8.281-2.938,13.49-2.938c23.26,0,36.177,5.115,37.979,7.552  c-2.292,1.635-12.521,1.479-18.688,1.344l-7.24-0.083c-7.135,0-9.042-0.896-11.677-2.146  C261.49,299.875,257.781,298.375,251.323,297.896z"/>
<path style="fill:#7CB342;" d="M256,122.969c0-54.74,80.563-101.635,146.521-101.635c1.552,0,2.813,1.26,2.813,2.813  c0,65.958-46.896,146.521-101.635,146.521c-12.167,0-22.927-4.844-32.896-14.802c-0.469-0.469-0.78-0.965-1.227-1.438  c24.732-46.496,61.887-71.492,107.966-91.292c5.417-2.323,7.917-8.604,5.594-14.01c-2.323-5.406-8.563-7.938-14.01-5.594  c-41.682,17.914-82.608,41.98-111.794,89.585C256.521,129.831,256,126.473,256,122.969z"/>
<path style="opacity:0.1;enable-background:new    ;" d="M403.79,21.859c-15.016,68.956-61.699,135.918-114.686,135.918  c-6.711,0-13.03-1.435-19.09-4.085c-0.138,0.258-0.301,0.475-0.439,0.734c0.447,0.473,0.758,0.969,1.227,1.438  c9.969,9.958,20.729,14.802,32.896,14.802c54.74,0,101.635-80.563,101.635-146.521C405.333,23.089,404.652,22.34,403.79,21.859z"/>
<g>
	<path style="fill:#7CB342;" d="M174.615,183.469c-35.615,0-67.344-54.531-67.938-98.125c43.594,0.594,98.125,32.323,98.125,67.938   c0,2.025-0.253,3.983-0.69,5.897c-16.341-18.461-35.561-34.738-59.529-50.72c-4.938-3.281-11.552-1.948-14.792,2.958   c-3.271,4.896-1.948,11.521,2.958,14.792c24.34,16.227,43.035,32.398,58.814,51.095   C186.313,181.376,180.741,183.469,174.615,183.469z"/>
	<path style="fill:#7CB342;" d="M107.057,370.384c3.871,2.598,6.598,6.686,9.755,12.428c2.219,4.031,4.51,8.198,7.813,11.51   c6.292,6.292,14.448,7.208,19.844,7.823c-0.583,1.01-1.385,2.188-2.385,3.615c-3.594,5.177-8.521,12.26-8.521,23.229v11.887   C118.257,421.134,108.647,396.85,107.057,370.384z"/>
</g>
<path style="fill:#BBDEFB;" d="M234.667,490.667c-30.163,0-57.871-10.547-79.771-28.064V428.99c0-4.094,1.615-6.604,4.708-11.052  c3.281-4.719,7.354-10.583,7.354-19.094c0-15.646-14.594-17.281-20.083-17.896c-2.74-0.313-6.146-0.698-7.156-1.708  c-1.167-1.167-2.719-3.99-4.219-6.708c-4.493-8.18-11.638-20.751-27.857-24.991c7.518-63.467,61.566-112.874,127.023-112.874  c4.378,0,8.702,0.225,12.967,0.656c-3.376,1.508-6.393,3.197-8.447,5.25c-2.073,2.073-3.208,4.917-3.125,7.854  c0.073,2.479,1.01,4.854,2.635,6.708c-0.75,0.448-1.677,0.969-2.833,1.552c-11.198,5.688-24.177,17.552-26.177,30.156  c-1.031,6.49,0.875,12.542,5.375,17.042c0.115,0.115,0.229,0.229,0.344,0.333c-4.417,2.146-8.667,4.979-12.396,8.708  c-11.375,11.354-10.167,24.938-9.458,33.052c0.146,1.646,0.302,3.198,0.302,4.625c0,13.167,12.094,22.729,28.75,22.729  c12.656,0,26.677,1.958,31.656,4.281c0.479,6.188,2.417,10.646,3.896,14.021c1.365,3.135,2.021,4.75,2.021,7.208l-0.688,2.031  c-2.583,3.344-5.344,7.625-5.344,16.052c0,14.125,12.323,28.51,14.792,31.25c2.052,2.281,4.948,3.531,7.927,3.531  c0.885,0,1.771-0.104,2.646-0.333c3.906-1,38.167-10.469,38.167-34.448c0-4.302,0.792-4.99,3.417-7.271  c3.24-2.802,8.646-7.49,8.646-16.74c0.323-3.563,7.625-14.573,15.323-23.094c1.99-2.198,2.979-5.135,2.719-8.094  c-0.26-2.958-1.74-5.667-4.083-7.49c-2.188-1.698-6.281-5.271-10.385-9.958c0.531,0,1.042,0.021,1.583-0.01  c7.405-0.419,15.96-6.883,23.406-14.197c2.753,10.427,4.365,21.313,4.365,32.592C362.667,433.25,305.25,490.667,234.667,490.667z"/>
<path style="opacity:0.1;enable-background:new    ;" d="M335.188,321.885c3.594-2.451,9.411-8.06,14.862-14.268  c-9.514-19.859-24.043-36.764-41.866-49.349c11.948,17.38,19.72,37.84,21.854,59.966  C331.961,319.478,333.827,320.772,335.188,321.885z M358.302,330.074c-7.447,7.314-16.001,13.777-23.406,14.197  c-0.542,0.031-1.052,0.01-1.583,0.01c4.104,4.688,8.198,8.26,10.385,9.958c2.344,1.823,3.823,4.531,4.083,7.49  c0.26,2.958-0.729,5.896-2.719,8.094c-7.698,8.521-15,19.531-15.323,23.094c0,9.25-5.406,13.938-8.646,16.74  c-2.625,2.281-3.417,2.969-3.417,7.271c0,23.979-34.26,33.448-38.167,34.448c-0.875,0.229-1.76,0.333-2.646,0.333  c-2.979,0-5.875-1.25-7.927-3.531c-0.741-0.822-2.431-2.915-4.346-5.513c-18.357,10.172-39.452,16.003-61.924,16.003  c-16.902,0-33-3.355-47.771-9.307v13.243c21.9,17.517,49.608,28.064,79.771,28.064c70.583,0,128-57.417,128-128  C362.667,351.387,361.055,340.501,358.302,330.074z"/>
<linearGradient id="SVGID_1_" gradientUnits="userSpaceOnUse" x1="-36.3342" y1="636.3255" x2="-28.8422" y2="628.8345" gradientTransform="matrix(21.3333 0 0 -21.3333 996.3334 13791.667)">
	<stop offset="0" style="stop-color:#000000;stop-opacity:0.1"/>
	<stop offset="1" style="stop-color:#000000;stop-opacity:0"/>
</linearGradient>
<path style="fill:url(#SVGID_1_);" d="M323.708,302.375c0,4.875-1.271,8.604-2.906,11.385c5.74,1.667,11.063,5.406,14.385,8.125  c3.594-2.451,9.411-8.06,14.862-14.268c-12.354-25.786-33.034-46.772-58.607-59.5c-11.15,0.854-22.341,2.602-29.63,4.56  c0.292,1.563,0.365,3.24,0.135,5.042c-1.208,9.271-9.958,14.708-16.427,17.99c-2.552,1.302-4.854,2.865-6.844,4.49  c6.708-3.156,14.979-6.573,26.135-6.573C302.24,273.625,323.708,284.104,323.708,302.375z M236.063,248.427  c-0.083-2.938,1.052-5.781,3.125-7.854c2.053-2.053,5.07-3.742,8.447-5.25c-4.266-0.431-8.59-0.656-12.967-0.656  c-13.148,0-25.633,2.47-37.576,6.171l25.458,25.458c4.228-3.896,8.844-7.337,13.315-9.608c1.156-0.583,2.083-1.104,2.833-1.552  C237.073,253.281,236.135,250.906,236.063,248.427z M302.792,302.51c-1.802-2.438-14.719-7.552-37.979-7.552  c-4.337,0-7.906,0.956-11.37,2.23l1.303,1.303c4.242,0.693,7.538,1.759,10.441,3.133c2.635,1.25,4.542,2.146,11.677,2.146  l7.24,0.083C290.271,303.99,300.5,304.146,302.792,302.51z M301.396,324.698c-5.469,0.708-11.49,0.573-17.656,0.49l-2.326-0.029  l39.924,39.924c0.323-0.423,0.643-0.913,0.964-1.323C315.688,357.313,307,347.302,303,336.115  C301.323,331.438,300.979,327.688,301.396,324.698z M358.302,330.074c-7.447,7.314-16.001,13.777-23.406,14.197  c-0.542,0.031-1.052,0.01-1.583,0.01c4.104,4.688,8.198,8.26,10.385,9.958c2.344,1.823,3.823,4.531,4.083,7.49  c0.26,2.958-0.729,5.896-2.719,8.094c-3.04,3.365-5.885,7.059-8.397,10.589l20.246,20.245c3.738-12.008,5.755-24.767,5.755-37.99  C362.667,351.387,361.055,340.501,358.302,330.074z"/>
<linearGradient id="SVGID_2_" gradientUnits="userSpaceOnUse" x1="-44.0326" y1="639.8995" x2="-26.8577" y2="631.8911" gradientTransform="matrix(21.3333 0 0 -21.3333 996.3334 13791.667)">
	<stop offset="0" style="stop-color:#FFFFFF;stop-opacity:0.2"/>
	<stop offset="1" style="stop-color:#FFFFFF;stop-opacity:0"/>
</linearGradient>
<path style="fill:url(#SVGID_2_);" d="M247.866,214.001c3.424-14.413,7.523-27.482,12.296-39.306  C273.107,185.974,287.665,192,303.698,192c68.115,0,122.969-91.823,122.969-167.854C426.667,10.833,415.833,0,402.521,0  C326.49,0,234.667,54.854,234.667,122.969c0,12.181,3.556,23.492,10.086,33.938c-5.305,11.602-10.009,24.378-14.022,38.462  c-3.733-6.056-7.629-11.871-11.688-17.447c4.566-7.594,7.092-15.793,7.092-24.641c0-49.458-66.031-89.281-120.698-89.281  c-11.083,0-20.104,9.021-20.104,20.104c0,54.667,39.823,120.698,89.281,120.698c10.931,0,20.914-3.703,29.897-10.66  c4.467,6.409,8.764,13.109,12.855,20.277c-74.212,8.612-132.034,71.763-132.034,148.247C85.333,445.01,152.323,512,234.667,512  S384,445.01,384,362.667C384,284.777,324.04,220.714,247.866,214.001z"/>
<g>
</g>
<g>
</g>
<g>
</g>
<g>
</g>
<g>
</g>
<g>
</g>
<g>
</g>
<g>
</g>
<g>
</g>
<g>
</g>
<g>
</g>
<g>
</g>
<g>
</g>
<g>
</g>
<g>
</g>
</svg>
